{
	"patcher" : 	{
		"fileversion" : 1,
		"appversion" : 		{
			"major" : 7,
			"minor" : 2,
			"revision" : 1,
			"architecture" : "x86",
			"modernui" : 1
		}
,
		"rect" : [ 59.0, 104.0, 1773.0, 1034.0 ],
		"bglocked" : 0,
		"openinpresentation" : 0,
		"default_fontsize" : 12.0,
		"default_fontface" : 0,
		"default_fontname" : "Arial",
		"gridonopen" : 1,
		"gridsize" : [ 15.0, 15.0 ],
		"gridsnaponopen" : 1,
		"objectsnaponopen" : 1,
		"statusbarvisible" : 2,
		"toolbarvisible" : 1,
		"lefttoolbarpinned" : 0,
		"toptoolbarpinned" : 0,
		"righttoolbarpinned" : 0,
		"bottomtoolbarpinned" : 0,
		"toolbars_unpinned_last_save" : 0,
		"tallnewobj" : 0,
		"boxanimatetime" : 200,
		"enablehscroll" : 1,
		"enablevscroll" : 1,
		"devicewidth" : 0.0,
		"description" : "",
		"digest" : "",
		"tags" : "",
		"style" : "",
		"subpatcher_template" : "",
		"boxes" : [ 			{
				"box" : 				{
					"bgmode" : 0,
					"border" : 0,
					"clickthrough" : 0,
					"enablehscroll" : 0,
					"enablevscroll" : 0,
					"extract" : 1,
					"id" : "obj-30",
					"lockeddragscroll" : 0,
					"maxclass" : "bpatcher",
					"name" : "bp.Sequencer.maxpat",
					"numinlets" : 2,
					"numoutlets" : 2,
					"offset" : [ 0.0, 0.0 ],
					"outlettype" : [ "signal", "signal" ],
					"patching_rect" : [ 1012.0, 500.0, 726.0, 232.0 ],
					"varname" : "bp.Sequencer",
					"viewvisibility" : 1
				}

			}
, 			{
				"box" : 				{
					"bgmode" : 0,
					"border" : 0,
					"clickthrough" : 0,
					"enablehscroll" : 0,
					"enablevscroll" : 0,
					"extract" : 1,
					"id" : "obj-28",
					"lockeddragscroll" : 0,
					"maxclass" : "bpatcher",
					"name" : "bp.Diode Ladder.maxpat",
					"numinlets" : 4,
					"numoutlets" : 1,
					"offset" : [ 0.0, 0.0 ],
					"outlettype" : [ "signal" ],
					"patching_rect" : [ 239.0, 724.0, 250.0, 116.0 ],
					"varname" : "bp.Diode Ladder",
					"viewvisibility" : 1
				}

			}
, 			{
				"box" : 				{
					"bgmode" : 0,
					"border" : 0,
					"clickthrough" : 0,
					"enablehscroll" : 0,
					"enablevscroll" : 0,
					"extract" : 1,
					"id" : "obj-27",
					"lockeddragscroll" : 0,
					"maxclass" : "bpatcher",
					"name" : "bp.Triple Morphing Filter.maxpat",
					"numinlets" : 4,
					"numoutlets" : 1,
					"offset" : [ 0.0, 0.0 ],
					"outlettype" : [ "signal" ],
					"patching_rect" : [ 530.0, 724.0, 387.0, 116.0 ],
					"varname" : "bp.Triple Morphing Filter",
					"viewvisibility" : 1
				}

			}
, 			{
				"box" : 				{
					"bgmode" : 0,
					"border" : 0,
					"clickthrough" : 0,
					"enablehscroll" : 0,
					"enablevscroll" : 0,
					"extract" : 1,
					"id" : "obj-23",
					"lockeddragscroll" : 0,
					"maxclass" : "bpatcher",
					"name" : "bp.Gate Sequencer.maxpat",
					"numinlets" : 1,
					"numoutlets" : 1,
					"offset" : [ 0.0, 0.0 ],
					"outlettype" : [ "signal" ],
					"patching_rect" : [ 1321.0, 22.0, 508.0, 116.0 ],
					"varname" : "bp.Gate Sequencer[2]",
					"viewvisibility" : 1
				}

			}
, 			{
				"box" : 				{
					"bgmode" : 0,
					"border" : 0,
					"clickthrough" : 0,
					"enablehscroll" : 0,
					"enablevscroll" : 0,
					"extract" : 1,
					"id" : "obj-24",
					"lockeddragscroll" : 0,
					"maxclass" : "bpatcher",
					"name" : "bp.GL LFO.maxpat",
					"numinlets" : 1,
					"numoutlets" : 2,
					"offset" : [ 0.0, 0.0 ],
					"outlettype" : [ "signal", "signal" ],
					"patching_rect" : [ 1321.0, 267.0, 422.0, 116.0 ],
					"viewvisibility" : 1
				}

			}
, 			{
				"box" : 				{
					"bgmode" : 0,
					"border" : 0,
					"clickthrough" : 0,
					"enablehscroll" : 0,
					"enablevscroll" : 0,
					"extract" : 1,
					"id" : "obj-25",
					"lockeddragscroll" : 0,
					"maxclass" : "bpatcher",
					"name" : "bp.ADSR2.maxpat",
					"numinlets" : 1,
					"numoutlets" : 1,
					"offset" : [ 0.0, 0.0 ],
					"outlettype" : [ "signal" ],
					"patching_rect" : [ 1321.0, 144.0, 341.0, 116.0 ],
					"varname" : "bp.ADSR2[2]",
					"viewvisibility" : 1
				}

			}
, 			{
				"box" : 				{
					"bgmode" : 0,
					"border" : 0,
					"clickthrough" : 0,
					"enablehscroll" : 0,
					"enablevscroll" : 0,
					"extract" : 1,
					"id" : "obj-20",
					"lockeddragscroll" : 0,
					"maxclass" : "bpatcher",
					"name" : "bp.Gate Sequencer.maxpat",
					"numinlets" : 1,
					"numoutlets" : 1,
					"offset" : [ 0.0, 0.0 ],
					"outlettype" : [ "signal" ],
					"patching_rect" : [ 782.0, 22.0, 508.0, 116.0 ],
					"varname" : "bp.Gate Sequencer[1]",
					"viewvisibility" : 1
				}

			}
, 			{
				"box" : 				{
					"bgmode" : 0,
					"border" : 0,
					"clickthrough" : 0,
					"enablehscroll" : 0,
					"enablevscroll" : 0,
					"extract" : 1,
					"id" : "obj-21",
					"lockeddragscroll" : 0,
					"maxclass" : "bpatcher",
					"name" : "bp.GL LFO.maxpat",
					"numinlets" : 1,
					"numoutlets" : 2,
					"offset" : [ 0.0, 0.0 ],
					"outlettype" : [ "signal", "signal" ],
					"patching_rect" : [ 782.0, 267.0, 422.0, 116.0 ],
					"viewvisibility" : 1
				}

			}
, 			{
				"box" : 				{
					"bgmode" : 0,
					"border" : 0,
					"clickthrough" : 0,
					"enablehscroll" : 0,
					"enablevscroll" : 0,
					"extract" : 1,
					"id" : "obj-22",
					"lockeddragscroll" : 0,
					"maxclass" : "bpatcher",
					"name" : "bp.ADSR2.maxpat",
					"numinlets" : 1,
					"numoutlets" : 1,
					"offset" : [ 0.0, 0.0 ],
					"outlettype" : [ "signal" ],
					"patching_rect" : [ 782.0, 144.0, 341.0, 116.0 ],
					"varname" : "bp.ADSR2[1]",
					"viewvisibility" : 1
				}

			}
, 			{
				"box" : 				{
					"bgmode" : 0,
					"border" : 0,
					"clickthrough" : 0,
					"embed" : 1,
					"enablehscroll" : 0,
					"enablevscroll" : 0,
					"id" : "obj-18",
					"lockeddragscroll" : 0,
					"maxclass" : "bpatcher",
					"numinlets" : 0,
					"numoutlets" : 1,
					"offset" : [ 0.0, 0.0 ],
					"outlettype" : [ "signal" ],
					"patcher" : 					{
						"fileversion" : 1,
						"appversion" : 						{
							"major" : 7,
							"minor" : 2,
							"revision" : 1,
							"architecture" : "x86",
							"modernui" : 1
						}
,
						"rect" : [ 80.0, 148.0, 107.0, 116.0 ],
						"bgcolor" : [ 1.0, 1.0, 1.0, 0.0 ],
						"bglocked" : 0,
						"openinpresentation" : 1,
						"default_fontsize" : 12.0,
						"default_fontface" : 0,
						"default_fontname" : "Arial",
						"gridonopen" : 1,
						"gridsize" : [ 15.0, 15.0 ],
						"gridsnaponopen" : 1,
						"objectsnaponopen" : 1,
						"statusbarvisible" : 1,
						"toolbarvisible" : 1,
						"lefttoolbarpinned" : 0,
						"toptoolbarpinned" : 0,
						"righttoolbarpinned" : 0,
						"bottomtoolbarpinned" : 0,
						"toolbars_unpinned_last_save" : 0,
						"tallnewobj" : 0,
						"boxanimatetime" : 200,
						"enablehscroll" : 1,
						"enablevscroll" : 1,
						"devicewidth" : 0.0,
						"description" : "",
						"digest" : "",
						"tags" : "",
						"style" : "",
						"subpatcher_template" : "",
						"boxes" : [ 							{
								"box" : 								{
									"id" : "obj-7",
									"linecount" : 2,
									"maxclass" : "comment",
									"numinlets" : 1,
									"numoutlets" : 0,
									"patching_rect" : [ 37.0, 85.0, 222.0, 33.0 ],
									"style" : "",
									"text" : "## Produces a regular pulse signal synced to gloabl transport ##"
								}

							}
, 							{
								"box" : 								{
									"fontname" : "Arial",
									"fontsize" : 12.0,
									"id" : "obj-3",
									"maxclass" : "message",
									"numinlets" : 2,
									"numoutlets" : 1,
									"outlettype" : [ "" ],
									"patching_rect" : [ 362.0, 126.0, 135.0, 22.0 ],
									"style" : "",
									"text" : "interval $1, quantize $1"
								}

							}
, 							{
								"box" : 								{
									"fontname" : "Arial",
									"fontsize" : 12.0,
									"id" : "obj-6",
									"maxclass" : "newobj",
									"numinlets" : 2,
									"numoutlets" : 1,
									"outlettype" : [ "int" ],
									"patching_rect" : [ 183.568909, 375.0, 32.5, 22.0 ],
									"style" : "",
									"text" : "!= 1"
								}

							}
, 							{
								"box" : 								{
									"fontname" : "Arial",
									"fontsize" : 12.0,
									"id" : "obj-28",
									"maxclass" : "newobj",
									"numinlets" : 2,
									"numoutlets" : 1,
									"outlettype" : [ "signal" ],
									"patching_rect" : [ 183.568909, 446.0, 117.431091, 22.0 ],
									"style" : "",
									"text" : "gate~ 1 1"
								}

							}
, 							{
								"box" : 								{
									"activebgcolor" : [ 0.572549, 0.615686, 0.658824, 0.0 ],
									"activebgoncolor" : [ 0.278431, 0.839216, 1.0, 1.0 ],
									"activetextcolor" : [ 1.0, 1.0, 1.0, 0.57 ],
									"activetextoncolor" : [ 0.0, 0.019608, 0.078431, 1.0 ],
									"bgcolor" : [ 0.101961, 0.101961, 0.101961, 0.78 ],
									"bordercolor" : [ 0.0, 0.019608, 0.078431, 0.37 ],
									"id" : "obj-29",
									"maxclass" : "live.text",
									"numinlets" : 1,
									"numoutlets" : 2,
									"outlettype" : [ "", "" ],
									"parameter_enable" : 1,
									"patching_rect" : [ 183.568909, 302.464355, 40.0, 20.0 ],
									"presentation" : 1,
									"presentation_rect" : [ 50.0, 19.0, 52.0, 14.764645 ],
									"saved_attribute_attributes" : 									{
										"valueof" : 										{
											"parameter_longname" : "mute[1]",
											"parameter_shortname" : "mute",
											"parameter_type" : 2,
											"parameter_mmax" : 1.0,
											"parameter_enum" : [ "val1", "val2" ],
											"parameter_initial_enable" : 1,
											"parameter_initial" : [ 0.0 ],
											"parameter_defer" : 1
										}

									}
,
									"text" : "mute",
									"textcolor" : [ 1.0, 1.0, 1.0, 1.0 ],
									"texton" : "mute",
									"varname" : "mute"
								}

							}
, 							{
								"box" : 								{
									"comment" : "signal output",
									"id" : "obj-5",
									"maxclass" : "outlet",
									"numinlets" : 1,
									"numoutlets" : 0,
									"patching_rect" : [ 183.568909, 500.0, 25.0, 25.0 ],
									"style" : ""
								}

							}
, 							{
								"box" : 								{
									"activebgcolor" : [ 0.572549, 0.615686, 0.658824, 0.0 ],
									"activebgoncolor" : [ 0.278431, 0.839216, 1.0, 1.0 ],
									"id" : "obj-27",
									"ignoreclick" : 1,
									"maxclass" : "live.button",
									"numinlets" : 1,
									"numoutlets" : 1,
									"outlettype" : [ "" ],
									"parameter_enable" : 1,
									"patching_rect" : [ 234.784454, 263.0, 15.0, 15.0 ],
									"presentation" : 1,
									"presentation_rect" : [ 4.0, 72.292229, 15.0, 15.0 ],
									"saved_attribute_attributes" : 									{
										"valueof" : 										{
											"parameter_longname" : "led",
											"parameter_shortname" : "led",
											"parameter_type" : 2,
											"parameter_mmax" : 1.0,
											"parameter_enum" : [ "off", "on" ],
											"parameter_invisible" : 2
										}

									}
,
									"varname" : "led"
								}

							}
, 							{
								"box" : 								{
									"fontname" : "Arial",
									"fontsize" : 12.0,
									"id" : "obj-26",
									"maxclass" : "message",
									"numinlets" : 2,
									"numoutlets" : 1,
									"outlettype" : [ "" ],
									"patching_rect" : [ 343.0, 307.0, 32.5, 22.0 ],
									"style" : "",
									"text" : "0"
								}

							}
, 							{
								"box" : 								{
									"fontname" : "Arial",
									"fontsize" : 12.0,
									"id" : "obj-24",
									"maxclass" : "message",
									"numinlets" : 2,
									"numoutlets" : 1,
									"outlettype" : [ "" ],
									"patching_rect" : [ 282.0, 307.0, 32.5, 22.0 ],
									"style" : "",
									"text" : "5"
								}

							}
, 							{
								"box" : 								{
									"activebgcolor" : [ 0.0, 0.0, 0.0, 1.0 ],
									"id" : "obj-129",
									"maxclass" : "live.numbox",
									"numinlets" : 1,
									"numoutlets" : 2,
									"outlettype" : [ "", "float" ],
									"parameter_enable" : 1,
									"patching_rect" : [ 380.0, 239.735229, 70.0, 15.0 ],
									"presentation" : 1,
									"presentation_rect" : [ 25.134384, 72.292229, 78.0, 15.0 ],
									"saved_attribute_attributes" : 									{
										"valueof" : 										{
											"parameter_longname" : "GateTime",
											"parameter_shortname" : "GateTime",
											"parameter_type" : 0,
											"parameter_mmax" : 500.0,
											"parameter_initial_enable" : 1,
											"parameter_initial" : [ 10 ],
											"parameter_unitstyle" : 2
										}

									}
,
									"textcolor" : [ 0.278431, 0.839216, 1.0, 1.0 ],
									"varname" : "GateTime"
								}

							}
, 							{
								"box" : 								{
									"fontname" : "Arial",
									"fontsize" : 12.0,
									"id" : "obj-22",
									"maxclass" : "newobj",
									"numinlets" : 2,
									"numoutlets" : 1,
									"outlettype" : [ "bang" ],
									"patching_rect" : [ 343.0, 271.0, 56.0, 22.0 ],
									"style" : "",
									"text" : "delay 10"
								}

							}
, 							{
								"box" : 								{
									"activebgcolor" : [ 0.572549, 0.615686, 0.658824, 0.0 ],
									"activebgoncolor" : [ 0.278431, 0.839216, 1.0, 1.0 ],
									"id" : "obj-20",
									"maxclass" : "live.toggle",
									"numinlets" : 1,
									"numoutlets" : 1,
									"outlettype" : [ "" ],
									"parameter_enable" : 1,
									"patching_rect" : [ 282.0, 146.907501, 19.0, 18.0 ],
									"presentation" : 1,
									"presentation_rect" : [ 3.0, 46.792229, 17.0, 18.0 ],
									"saved_attribute_attributes" : 									{
										"valueof" : 										{
											"parameter_linknames" : 1,
											"parameter_longname" : "enable",
											"parameter_shortname" : "enable",
											"parameter_type" : 2,
											"parameter_mmax" : 1.0,
											"parameter_enum" : [ "off", "on" ],
											"parameter_initial_enable" : 1,
											"parameter_initial" : [ 1 ]
										}

									}
,
									"varname" : "enable"
								}

							}
, 							{
								"box" : 								{
									"fontname" : "Arial",
									"fontsize" : 12.0,
									"id" : "obj-17",
									"maxclass" : "newobj",
									"numinlets" : 2,
									"numoutlets" : 1,
									"outlettype" : [ "bang" ],
									"patching_rect" : [ 282.0, 195.0, 199.0, 22.0 ],
									"style" : "",
									"text" : "metro 4n @active 1 @quantize 16n"
								}

							}
, 							{
								"box" : 								{
									"bgcolor" : [ 0.0, 0.0, 0.0, 1.0 ],
									"bgfillcolor_angle" : 270.0,
									"bgfillcolor_color" : [ 0.0, 0.0, 0.0, 1.0 ],
									"bgfillcolor_color1" : [ 0.435294, 0.462745, 0.498039, 1.0 ],
									"bgfillcolor_color2" : [ 0.290196, 0.309804, 0.301961, 1.0 ],
									"bgfillcolor_proportion" : 0.39,
									"bgfillcolor_type" : "color",
									"fontsize" : 10.0,
									"id" : "obj-34",
									"items" : [ "32.0.0", ",", "16.0.0", ",", "8.0.0", ",", "4.0.0", ",", "2.0.0", ",", "1.0.0", ",", "1nd", ",", "1n", ",", "1nt", ",", "2nd", ",", "2n", ",", "4nd", ",", "4n", ",", "4nt", ",", "8nd", ",", "8n", ",", "8nt", ",", "16nd", ",", "16n", ",", "16nt", ",", "32nd", ",", "32n", ",", "32nt", ",", "64nd", ",", "64n", ",", "128n" ],
									"maxclass" : "umenu",
									"numinlets" : 1,
									"numoutlets" : 3,
									"outlettype" : [ "int", "", "" ],
									"parameter_enable" : 1,
									"patching_rect" : [ 336.0, 88.907501, 71.0, 20.0 ],
									"pattrmode" : 1,
									"presentation" : 1,
									"presentation_rect" : [ 25.134384, 46.792229, 78.0, 20.0 ],
									"saved_attribute_attributes" : 									{
										"valueof" : 										{
											"parameter_longname" : "Pulse[1]",
											"parameter_shortname" : "Pulse",
											"parameter_type" : 3,
											"parameter_initial_enable" : 1,
											"parameter_initial" : [ "8n" ],
											"parameter_invisible" : 1
										}

									}
,
									"style" : "",
									"textcolor" : [ 0.278431, 0.839216, 1.0, 1.0 ],
									"varname" : "Pulse"
								}

							}
, 							{
								"box" : 								{
									"fontname" : "Arial",
									"fontsize" : 12.0,
									"id" : "obj-1",
									"maxclass" : "newobj",
									"numinlets" : 1,
									"numoutlets" : 1,
									"outlettype" : [ "signal" ],
									"patching_rect" : [ 282.0, 396.0, 33.0, 22.0 ],
									"style" : "",
									"text" : "sig~"
								}

							}
, 							{
								"box" : 								{
									"fontname" : "Arial",
									"fontsize" : 12.0,
									"id" : "obj-4",
									"maxclass" : "newobj",
									"numinlets" : 1,
									"numoutlets" : 4,
									"outlettype" : [ "", "", "", "" ],
									"patching_rect" : [ 37.0, 126.0, 59.5, 22.0 ],
									"restore" : 									{
										"GateTime" : [ 10.0 ],
										"Pulse" : [ "8n" ],
										"enable" : [ 1.0 ],
										"led" : [ 1.0 ],
										"mute" : [ 0.0 ]
									}
,
									"style" : "",
									"text" : "autopattr",
									"varname" : "u128002699"
								}

							}
, 							{
								"box" : 								{
									"fontname" : "Arial Bold",
									"fontsize" : 9.0,
									"id" : "obj-8",
									"maxclass" : "comment",
									"numinlets" : 1,
									"numoutlets" : 0,
									"patching_rect" : [ 227.668884, 504.0, 41.0, 17.0 ],
									"presentation" : 1,
									"presentation_rect" : [ 2.0, 97.0, 41.0, 17.0 ],
									"style" : "",
									"text" : "Trigger",
									"textcolor" : [ 1.0, 1.0, 1.0, 1.0 ]
								}

							}
, 							{
								"box" : 								{
									"fontname" : "Arial Bold",
									"fontsize" : 9.0,
									"id" : "obj-13",
									"maxclass" : "comment",
									"numinlets" : 1,
									"numoutlets" : 0,
									"patching_rect" : [ 37.0, 62.907501, 43.0, 17.0 ],
									"presentation" : 1,
									"presentation_rect" : [ 2.0, 19.0, 43.0, 17.0 ],
									"style" : "",
									"text" : "METRO",
									"textcolor" : [ 1.0, 1.0, 1.0, 1.0 ]
								}

							}
, 							{
								"box" : 								{
									"angle" : 0.0,
									"background" : 1,
									"bgcolor" : [ 0.137255, 0.145098, 0.160784, 0.65 ],
									"id" : "obj-130",
									"maxclass" : "panel",
									"mode" : 0,
									"numinlets" : 1,
									"numoutlets" : 0,
									"patching_rect" : [ 37.0, 43.711639, 37.0, 5.0 ],
									"presentation" : 1,
									"presentation_rect" : [ 0.0, 37.0, 425.0, 60.338158 ],
									"proportion" : 0.39,
									"rounded" : 0,
									"style" : ""
								}

							}
, 							{
								"box" : 								{
									"angle" : 0.0,
									"background" : 1,
									"bgcolor" : [ 0.367404, 0.389405, 0.430238, 1.0 ],
									"id" : "obj-131",
									"maxclass" : "panel",
									"mode" : 0,
									"numinlets" : 1,
									"numoutlets" : 0,
									"patching_rect" : [ 81.337189, 43.711639, 37.0, 5.0 ],
									"presentation" : 1,
									"presentation_rect" : [ 0.0, 17.0, 425.0, 80.338158 ],
									"proportion" : 0.39,
									"rounded" : 0,
									"style" : ""
								}

							}
, 							{
								"box" : 								{
									"angle" : 0.0,
									"background" : 1,
									"bgcolor" : [ 0.0, 0.0, 0.0, 1.0 ],
									"id" : "obj-135",
									"maxclass" : "panel",
									"mode" : 0,
									"numinlets" : 1,
									"numoutlets" : 0,
									"patching_rect" : [ 124.079285, 43.711639, 37.0, 5.0 ],
									"presentation" : 1,
									"presentation_rect" : [ 0.0, 0.0, 425.0, 133.0 ],
									"proportion" : 0.39,
									"rounded" : 0,
									"style" : ""
								}

							}
 ],
						"lines" : [ 							{
								"patchline" : 								{
									"destination" : [ "obj-28", 1 ],
									"disabled" : 0,
									"hidden" : 0,
									"source" : [ "obj-1", 0 ]
								}

							}
, 							{
								"patchline" : 								{
									"destination" : [ "obj-22", 1 ],
									"disabled" : 0,
									"hidden" : 0,
									"source" : [ "obj-129", 0 ]
								}

							}
, 							{
								"patchline" : 								{
									"destination" : [ "obj-22", 0 ],
									"disabled" : 0,
									"hidden" : 0,
									"source" : [ "obj-17", 0 ]
								}

							}
, 							{
								"patchline" : 								{
									"destination" : [ "obj-24", 0 ],
									"disabled" : 0,
									"hidden" : 0,
									"source" : [ "obj-17", 0 ]
								}

							}
, 							{
								"patchline" : 								{
									"destination" : [ "obj-27", 0 ],
									"disabled" : 0,
									"hidden" : 0,
									"source" : [ "obj-17", 0 ]
								}

							}
, 							{
								"patchline" : 								{
									"destination" : [ "obj-17", 0 ],
									"disabled" : 0,
									"hidden" : 0,
									"source" : [ "obj-20", 0 ]
								}

							}
, 							{
								"patchline" : 								{
									"destination" : [ "obj-26", 0 ],
									"disabled" : 0,
									"hidden" : 0,
									"source" : [ "obj-22", 0 ]
								}

							}
, 							{
								"patchline" : 								{
									"destination" : [ "obj-1", 0 ],
									"disabled" : 0,
									"hidden" : 0,
									"source" : [ "obj-24", 0 ]
								}

							}
, 							{
								"patchline" : 								{
									"destination" : [ "obj-1", 0 ],
									"disabled" : 0,
									"hidden" : 0,
									"source" : [ "obj-26", 0 ]
								}

							}
, 							{
								"patchline" : 								{
									"destination" : [ "obj-5", 0 ],
									"disabled" : 0,
									"hidden" : 0,
									"source" : [ "obj-28", 0 ]
								}

							}
, 							{
								"patchline" : 								{
									"destination" : [ "obj-6", 0 ],
									"disabled" : 0,
									"hidden" : 0,
									"source" : [ "obj-29", 0 ]
								}

							}
, 							{
								"patchline" : 								{
									"destination" : [ "obj-17", 0 ],
									"disabled" : 0,
									"hidden" : 0,
									"source" : [ "obj-3", 0 ]
								}

							}
, 							{
								"patchline" : 								{
									"destination" : [ "obj-3", 0 ],
									"disabled" : 0,
									"hidden" : 0,
									"source" : [ "obj-34", 1 ]
								}

							}
, 							{
								"patchline" : 								{
									"destination" : [ "obj-28", 0 ],
									"disabled" : 0,
									"hidden" : 0,
									"source" : [ "obj-6", 0 ]
								}

							}
 ]
					}
,
					"patching_rect" : [ 21.0, 18.0, 107.0, 116.0 ],
					"varname" : "MetronomicPulse",
					"viewvisibility" : 1
				}

			}
, 			{
				"box" : 				{
					"id" : "obj-4",
					"maxclass" : "newobj",
					"numinlets" : 3,
					"numoutlets" : 0,
					"patching_rect" : [ 109.0, 909.0, 67.0, 22.0 ],
					"style" : "",
					"text" : "dac~ 1 2 3"
				}

			}
, 			{
				"box" : 				{
					"bgmode" : 0,
					"border" : 0,
					"clickthrough" : 0,
					"enablehscroll" : 0,
					"enablevscroll" : 0,
					"extract" : 1,
					"id" : "obj-3",
					"lockeddragscroll" : 0,
					"maxclass" : "bpatcher",
					"name" : "bp.Mono Risset Oscillator.maxpat",
					"numinlets" : 4,
					"numoutlets" : 1,
					"offset" : [ 0.0, 0.0 ],
					"outlettype" : [ "signal" ],
					"patching_rect" : [ 239.0, 524.0, 346.0, 116.0 ],
					"varname" : "bp.Mono Risset Oscillator",
					"viewvisibility" : 1
				}

			}
, 			{
				"box" : 				{
					"bgmode" : 0,
					"border" : 0,
					"clickthrough" : 0,
					"enablehscroll" : 0,
					"enablevscroll" : 0,
					"extract" : 1,
					"id" : "obj-2",
					"lockeddragscroll" : 0,
					"maxclass" : "bpatcher",
					"name" : "bp.GL LFO.maxpat",
					"numinlets" : 1,
					"numoutlets" : 2,
					"offset" : [ 0.0, 0.0 ],
					"outlettype" : [ "signal", "signal" ],
					"patching_rect" : [ 239.0, 267.0, 422.0, 116.0 ],
					"viewvisibility" : 1
				}

			}
, 			{
				"box" : 				{
					"bgmode" : 0,
					"border" : 0,
					"clickthrough" : 0,
					"enablehscroll" : 0,
					"enablevscroll" : 0,
					"extract" : 1,
					"id" : "obj-1",
					"lockeddragscroll" : 0,
					"maxclass" : "bpatcher",
					"name" : "bp.ADSR2.maxpat",
					"numinlets" : 1,
					"numoutlets" : 1,
					"offset" : [ 0.0, 0.0 ],
					"outlettype" : [ "signal" ],
					"patching_rect" : [ 239.0, 144.0, 341.0, 116.0 ],
					"varname" : "bp.ADSR2",
					"viewvisibility" : 1
				}

			}
 ],
		"lines" : [ 			{
				"patchline" : 				{
					"destination" : [ "obj-2", 0 ],
					"disabled" : 0,
					"hidden" : 0,
					"source" : [ "obj-1", 0 ]
				}

			}
, 			{
				"patchline" : 				{
					"destination" : [ "obj-20", 0 ],
					"disabled" : 0,
					"hidden" : 0,
					"source" : [ "obj-18", 0 ]
				}

			}
, 			{
				"patchline" : 				{
					"destination" : [ "obj-23", 0 ],
					"disabled" : 0,
					"hidden" : 0,
					"source" : [ "obj-18", 0 ]
				}

			}
, 			{
				"patchline" : 				{
					"destination" : [ "obj-30", 0 ],
					"disabled" : 0,
					"hidden" : 0,
					"source" : [ "obj-18", 0 ]
				}

			}
, 			{
				"patchline" : 				{
					"destination" : [ "obj-27", 1 ],
					"disabled" : 0,
					"hidden" : 0,
					"source" : [ "obj-2", 0 ]
				}

			}
, 			{
				"patchline" : 				{
					"destination" : [ "obj-3", 3 ],
					"disabled" : 0,
					"hidden" : 0,
					"source" : [ "obj-2", 1 ]
				}

			}
, 			{
				"patchline" : 				{
					"destination" : [ "obj-3", 0 ],
					"disabled" : 0,
					"hidden" : 0,
					"source" : [ "obj-2", 0 ]
				}

			}
, 			{
				"patchline" : 				{
					"destination" : [ "obj-22", 0 ],
					"disabled" : 0,
					"hidden" : 0,
					"source" : [ "obj-20", 0 ]
				}

			}
, 			{
				"patchline" : 				{
					"destination" : [ "obj-28", 1 ],
					"disabled" : 0,
					"hidden" : 0,
					"source" : [ "obj-21", 0 ]
				}

			}
, 			{
				"patchline" : 				{
					"destination" : [ "obj-3", 3 ],
					"disabled" : 0,
					"hidden" : 0,
					"source" : [ "obj-21", 1 ]
				}

			}
, 			{
				"patchline" : 				{
					"destination" : [ "obj-3", 1 ],
					"disabled" : 0,
					"hidden" : 0,
					"source" : [ "obj-21", 0 ]
				}

			}
, 			{
				"patchline" : 				{
					"destination" : [ "obj-21", 0 ],
					"disabled" : 0,
					"hidden" : 0,
					"source" : [ "obj-22", 0 ]
				}

			}
, 			{
				"patchline" : 				{
					"destination" : [ "obj-25", 0 ],
					"disabled" : 0,
					"hidden" : 0,
					"source" : [ "obj-23", 0 ]
				}

			}
, 			{
				"patchline" : 				{
					"destination" : [ "obj-28", 2 ],
					"disabled" : 0,
					"hidden" : 0,
					"source" : [ "obj-24", 0 ]
				}

			}
, 			{
				"patchline" : 				{
					"destination" : [ "obj-3", 3 ],
					"disabled" : 0,
					"hidden" : 0,
					"source" : [ "obj-24", 1 ]
				}

			}
, 			{
				"patchline" : 				{
					"destination" : [ "obj-3", 2 ],
					"disabled" : 0,
					"hidden" : 0,
					"source" : [ "obj-24", 0 ]
				}

			}
, 			{
				"patchline" : 				{
					"destination" : [ "obj-24", 0 ],
					"disabled" : 0,
					"hidden" : 0,
					"source" : [ "obj-25", 0 ]
				}

			}
, 			{
				"patchline" : 				{
					"destination" : [ "obj-4", 2 ],
					"disabled" : 0,
					"hidden" : 0,
					"source" : [ "obj-27", 0 ]
				}

			}
, 			{
				"patchline" : 				{
					"destination" : [ "obj-4", 1 ],
					"disabled" : 0,
					"hidden" : 0,
					"source" : [ "obj-28", 0 ]
				}

			}
, 			{
				"patchline" : 				{
					"destination" : [ "obj-27", 0 ],
					"disabled" : 0,
					"hidden" : 0,
					"source" : [ "obj-3", 0 ]
				}

			}
, 			{
				"patchline" : 				{
					"destination" : [ "obj-28", 0 ],
					"disabled" : 0,
					"hidden" : 0,
					"source" : [ "obj-3", 0 ]
				}

			}
, 			{
				"patchline" : 				{
					"destination" : [ "obj-4", 0 ],
					"disabled" : 0,
					"hidden" : 0,
					"source" : [ "obj-3", 0 ]
				}

			}
, 			{
				"patchline" : 				{
					"destination" : [ "obj-1", 0 ],
					"disabled" : 0,
					"hidden" : 0,
					"source" : [ "obj-30", 1 ]
				}

			}
, 			{
				"patchline" : 				{
					"destination" : [ "obj-2", 0 ],
					"disabled" : 0,
					"hidden" : 0,
					"source" : [ "obj-30", 0 ]
				}

			}
, 			{
				"patchline" : 				{
					"destination" : [ "obj-28", 3 ],
					"disabled" : 0,
					"hidden" : 0,
					"source" : [ "obj-30", 0 ]
				}

			}
 ],
		"parameters" : 		{
			"obj-1::obj-46" : [ "decay curve", "decay curve", 0 ],
			"obj-2::obj-7" : [ "Phase", "Phase", 0 ],
			"obj-1::obj-26" : [ "mute", "mute", 0 ],
			"obj-2::obj-18" : [ "Scale", "Scale", 0 ],
			"obj-27::obj-132" : [ "CV_amt", "CV", 0 ],
			"obj-25::obj-47" : [ "attack curve[2]", "attack curve", 0 ],
			"obj-27::obj-157" : [ "f1b", "f1b", 0 ],
			"obj-28::obj-22" : [ "TimeMode", "TimeMode", 1 ],
			"obj-30::obj-96" : [ "Pulse[6]", "Pulse", 0 ],
			"obj-23::obj-125" : [ "PatternGrid[1]", "PatternGrid", 0 ],
			"obj-27::obj-69" : [ "manCVa", "manCVa", 0 ],
			"obj-3::obj-53" : [ "Mute[1]", "Mute", 0 ],
			"obj-20::obj-28" : [ "Attack[1]", "Attack", 0 ],
			"obj-18::obj-129" : [ "GateTime", "GateTime", 0 ],
			"obj-20::obj-120" : [ "Max pulse", "Max pulse", 0 ],
			"obj-22::obj-31" : [ "Release[1]", "Release", 0 ],
			"obj-23::obj-155" : [ "Swing amount[1]", "Swing amount", 0 ],
			"obj-21::obj-7" : [ "Phase[1]", "Phase", 0 ],
			"obj-28::obj-23" : [ "CV2[1]", "CV2", 0 ],
			"obj-24::obj-18" : [ "Scale[2]", "Scale", 0 ],
			"obj-30::obj-22" : [ "Pattern", "Pattern", 0 ],
			"obj-30::obj-120" : [ "Max pulse[2]", "Max pulse", 0 ],
			"obj-2::obj-59" : [ "Lock", "Lock", 0 ],
			"obj-3::obj-51" : [ "Freq", "Freq", 0 ],
			"obj-20::obj-155" : [ "Swing amount", "Swing amount", 0 ],
			"obj-2::obj-20" : [ "Frequency", "Freq", 0 ],
			"obj-2::obj-45::obj-2" : [ "pastebang[1]", "pastebang", 0 ],
			"obj-20::obj-157" : [ "Swing enable", "Swing enable", 0 ],
			"obj-24::obj-20" : [ "Frequency[2]", "Freq", 0 ],
			"obj-24::obj-64" : [ "Pulse[5]", "Pulse", 0 ],
			"obj-30::obj-2" : [ "trans_trig", "trans_trig", 0 ],
			"obj-30::obj-130" : [ "mute[6]", "mute", 0 ],
			"obj-1::obj-29" : [ "Decay", "Decay", 0 ],
			"obj-25::obj-45" : [ "release curve[2]", "release curve", 0 ],
			"obj-28::obj-55" : [ "power", "power", 0 ],
			"obj-1::obj-45" : [ "release curve", "release curve", 0 ],
			"obj-2::obj-44" : [ "Shape", "Shape", 0 ],
			"obj-30::obj-25" : [ "GateTime[1]", "GateTime", 0 ],
			"obj-20::obj-95" : [ "Steps", "Steps", 0 ],
			"obj-24::obj-129" : [ "Rate_ms[2]", "Rate_ms", 0 ],
			"obj-27::obj-40" : [ "FreqApreset", "FreqApreset", 0 ],
			"obj-30::obj-4" : [ "live.text", "live.text", 0 ],
			"obj-22::obj-47" : [ "attack curve[1]", "attack curve", 0 ],
			"obj-27::obj-1" : [ "f2a", "f2a", 0 ],
			"obj-2::obj-12" : [ "Mute", "Mute", 0 ],
			"obj-27::obj-73" : [ "manCVb", "manCVb", 0 ],
			"obj-28::obj-63" : [ "CV3[1]", "CV3", 0 ],
			"obj-3::obj-129" : [ "CV2", "CV2", 0 ],
			"obj-3::obj-64" : [ "octaves", "octaves", 0 ],
			"obj-2::obj-4" : [ "Follow", "Follow", 0 ],
			"obj-24::obj-4" : [ "Follow[2]", "Follow", 0 ],
			"obj-27::obj-158" : [ "Q", "Q", 0 ],
			"obj-30::obj-125" : [ "NoteGrid", "NoteGrid", 0 ],
			"obj-20::obj-139" : [ "ClockSelect", "ClockSelect", 0 ],
			"obj-21::obj-18" : [ "Scale[1]", "Scale", 0 ],
			"obj-23::obj-20" : [ "mute[4]", "mute", 0 ],
			"obj-23::obj-9" : [ "gatepct[1]", "gatepct", 0 ],
			"obj-2::obj-23::obj-2" : [ "pastebang", "pastebang", 0 ],
			"obj-21::obj-20" : [ "Frequency[1]", "Freq", 0 ],
			"obj-21::obj-64" : [ "Pulse[3]", "Pulse", 0 ],
			"obj-1::obj-31" : [ "Release", "Release", 0 ],
			"obj-2::obj-19" : [ "Bias", "Bias", 0 ],
			"obj-22::obj-45" : [ "release curve[1]", "release curve", 0 ],
			"obj-23::obj-120" : [ "Max pulse[1]", "Max pulse", 0 ],
			"obj-21::obj-129" : [ "Rate_ms[1]", "Rate_ms", 0 ],
			"obj-23::obj-139" : [ "ClockSelect[1]", "ClockSelect", 0 ],
			"obj-27::obj-152" : [ "FreqBpreset", "FreqBpreset", 0 ],
			"obj-24::obj-23::obj-2" : [ "pastebang[4]", "pastebang", 0 ],
			"obj-27::obj-156" : [ "f2b", "f2b", 0 ],
			"obj-25::obj-32" : [ "Sustain[2]", "Sustain", 0 ],
			"obj-3::obj-106" : [ "CV3", "CV3", 0 ],
			"obj-3::obj-46" : [ "Offset", "Offset", 0 ],
			"obj-18::obj-20" : [ "enable", "enable", 0 ],
			"obj-3::obj-16" : [ "root_note", "root_note", 0 ],
			"obj-25::obj-29" : [ "Decay[2]", "Decay", 0 ],
			"obj-30::obj-157" : [ "Swing enable[2]", "Swing enable", 0 ],
			"obj-21::obj-4" : [ "Follow[1]", "Follow", 0 ],
			"obj-30::obj-28" : [ "Sync", "Sync", 0 ],
			"obj-30::obj-89" : [ "Reset[2]", "Reset", 0 ],
			"obj-20::obj-20" : [ "mute[2]", "mute", 0 ],
			"obj-20::obj-125" : [ "PatternGrid", "PatternGrid", 0 ],
			"obj-24::obj-45::obj-2" : [ "pastebang[5]", "pastebang", 0 ],
			"obj-28::obj-4" : [ "Offset[1]", "Offset", 0 ],
			"obj-2::obj-129" : [ "Rate_ms", "Rate_ms", 0 ],
			"obj-20::obj-96" : [ "Pulse[2]", "Pulse", 0 ],
			"obj-1::obj-32" : [ "Sustain", "Sustain", 0 ],
			"obj-2::obj-64" : [ "Pulse", "Pulse", 0 ],
			"obj-25::obj-26" : [ "mute[5]", "mute", 0 ],
			"obj-25::obj-46" : [ "decay curve[2]", "decay curve", 0 ],
			"obj-27::obj-110" : [ "bypass", "bypass", 0 ],
			"obj-27::obj-28" : [ "Morph", "Morph", 0 ],
			"obj-27::obj-2" : [ "f3a", "f3a", 0 ],
			"obj-22::obj-32" : [ "Sustain[1]", "Sustain", 0 ],
			"obj-23::obj-28" : [ "Attack[3]", "Attack", 0 ],
			"obj-24::obj-44" : [ "Shape[2]", "Shape", 0 ],
			"obj-3::obj-45" : [ "FreqMode", "FreqMode", 0 ],
			"obj-28::obj-54" : [ "CV1", "CV1", 0 ],
			"obj-22::obj-29" : [ "Decay[1]", "Decay", 0 ],
			"obj-23::obj-157" : [ "Swing enable[1]", "Swing enable", 0 ],
			"obj-24::obj-19" : [ "Bias[2]", "Bias", 0 ],
			"obj-23::obj-89" : [ "Reset[1]", "Reset", 0 ],
			"obj-18::obj-29" : [ "mute[1]", "mute", 0 ],
			"obj-20::obj-9" : [ "gatepct", "gatepct", 0 ],
			"obj-24::obj-59" : [ "Lock[2]", "Lock", 0 ],
			"obj-21::obj-45::obj-2" : [ "pastebang[3]", "pastebang", 0 ],
			"obj-18::obj-34" : [ "Pulse[1]", "Pulse", 0 ],
			"obj-30::obj-95" : [ "Steps[2]", "Steps", 0 ],
			"obj-1::obj-47" : [ "attack curve", "attack curve", 0 ],
			"obj-22::obj-26" : [ "mute[3]", "mute", 0 ],
			"obj-22::obj-46" : [ "decay curve[1]", "decay curve", 0 ],
			"obj-27::obj-129" : [ "f1a", "f1a", 0 ],
			"obj-27::obj-155" : [ "f3b", "f3b", 0 ],
			"obj-20::obj-89" : [ "Reset", "Reset", 0 ],
			"obj-21::obj-44" : [ "Shape[1]", "Shape", 0 ],
			"obj-21::obj-12" : [ "Mute[2]", "Mute", 0 ],
			"obj-22::obj-2" : [ "Attack[2]", "Attack", 0 ],
			"obj-23::obj-96" : [ "Pulse[4]", "Pulse", 0 ],
			"obj-25::obj-31" : [ "Release[2]", "Release", 0 ],
			"obj-30::obj-155" : [ "Swing amount[2]", "Swing amount", 0 ],
			"obj-3::obj-12" : [ "KeyboardMode", "KeyboardMode", 0 ],
			"obj-24::obj-7" : [ "Phase[2]", "Phase", 0 ],
			"obj-28::obj-28" : [ "Res", "Res", 0 ],
			"obj-30::obj-185" : [ "Sequence", "Sequence", 0 ],
			"obj-21::obj-19" : [ "Bias[1]", "Bias", 0 ],
			"obj-25::obj-2" : [ "Attack[4]", "Attack", 0 ],
			"obj-28::obj-20" : [ "Freq[1]", "Freq", 0 ],
			"obj-21::obj-59" : [ "Lock[1]", "Lock", 0 ],
			"obj-24::obj-12" : [ "Mute[3]", "Mute", 0 ],
			"obj-18::obj-27" : [ "led", "led", 0 ],
			"obj-21::obj-23::obj-2" : [ "pastebang[2]", "pastebang", 0 ],
			"obj-1::obj-2" : [ "Attack", "Attack", 0 ],
			"obj-23::obj-95" : [ "Steps[1]", "Steps", 0 ]
		}
,
		"dependency_cache" : [ 			{
				"name" : "bp.ADSR2.maxpat",
				"bootpath" : "C74:/packages/BEAP/clippings/BEAP/Envelope",
				"type" : "JSON",
				"implicit" : 1
			}
, 			{
				"name" : "bp.GL LFO.maxpat",
				"bootpath" : "C74:/packages/BEAP/clippings/BEAP/LFO",
				"type" : "JSON",
				"implicit" : 1
			}
, 			{
				"name" : "background_sm.maxpat",
				"bootpath" : "C74:/packages/BEAP/misc",
				"type" : "JSON",
				"implicit" : 1
			}
, 			{
				"name" : "pastebang.maxpat",
				"bootpath" : "C74:/packages/BEAP/misc",
				"type" : "JSON",
				"implicit" : 1
			}
, 			{
				"name" : "bp.Mono Risset Oscillator.maxpat",
				"bootpath" : "C74:/packages/BEAP/clippings/BEAP/Oscillator",
				"type" : "JSON",
				"implicit" : 1
			}
, 			{
				"name" : "mro_saw.maxpat",
				"bootpath" : "C74:/packages/BEAP/misc/mro_osc",
				"type" : "JSON",
				"implicit" : 1
			}
, 			{
				"name" : "bp.Gate Sequencer.maxpat",
				"bootpath" : "C74:/packages/BEAP/clippings/BEAP/Sequencer",
				"type" : "JSON",
				"implicit" : 1
			}
, 			{
				"name" : "swingCalc.js",
				"bootpath" : "C74:/packages/BEAP/misc",
				"type" : "TEXT",
				"implicit" : 1
			}
, 			{
				"name" : "bp.Triple Morphing Filter.maxpat",
				"bootpath" : "C74:/packages/BEAP/clippings/BEAP/Filter",
				"type" : "JSON",
				"implicit" : 1
			}
, 			{
				"name" : "bp.Diode Ladder.maxpat",
				"bootpath" : "C74:/packages/BEAP/clippings/BEAP/Filter",
				"type" : "JSON",
				"implicit" : 1
			}
, 			{
				"name" : "bp.diodeladder.poly.maxpat",
				"bootpath" : "C74:/packages/BEAP/misc",
				"type" : "JSON",
				"implicit" : 1
			}
, 			{
				"name" : "0df_diodeladder.gendsp",
				"bootpath" : "C74:/packages/BEAP/misc",
				"type" : "gDSP",
				"implicit" : 1
			}
, 			{
				"name" : "bp.Sequencer.maxpat",
				"bootpath" : "C74:/packages/BEAP/clippings/BEAP/Sequencer",
				"type" : "JSON",
				"implicit" : 1
			}
 ],
		"autosave" : 0
	}

}
